<svg width="129" height="52" viewBox="0 0 129 52" fill="none" xmlns="http://www.w3.org/2000/svg">
<path d="M45.9375 4.74609C45.3776 5.56641 44.7526 6.54948 44.0625 7.69531C43.3724 8.84115 42.6367 10.1237 41.8555 11.543C41.1914 12.7279 40.5339 13.9909 39.8828 15.332C39.2448 16.6602 38.6328 17.9818 38.0469 19.2969C37.4609 20.599 36.9206 21.8555 36.4258 23.0664C35.931 24.2643 35.5013 25.3255 35.1367 26.25C34.7721 27.1615 34.4857 27.8971 34.2773 28.457C34.069 29.0039 33.9648 29.2839 33.9648 29.2969C33.8346 29.6224 33.6003 29.7852 33.2617 29.7852C33.0924 29.7852 32.9427 29.7331 32.8125 29.6289C32.6823 29.5117 32.5977 29.3685 32.5586 29.1992C32.5586 29.1862 32.4935 28.9128 32.3633 28.3789C32.2461 27.832 32.0833 27.1094 31.875 26.2109C31.6667 25.2995 31.4258 24.2578 31.1523 23.0859C30.8919 21.901 30.612 20.6706 30.3125 19.3945C30.026 18.1055 29.7331 16.8034 29.4336 15.4883C29.1341 14.1732 28.8542 12.9232 28.5938 11.7383C27.7214 14.1992 26.8424 16.3802 25.957 18.2812C25.0846 20.1693 24.1862 21.8164 23.2617 23.2227C22.3372 24.6159 21.3802 25.7878 20.3906 26.7383C19.4141 27.6888 18.3854 28.457 17.3047 29.043C16.237 29.6159 15.1107 30.026 13.9258 30.2734C12.7539 30.5208 11.5104 30.6445 10.1953 30.6445C9.51823 30.6445 8.79557 30.5664 8.02734 30.4102C7.25911 30.2669 6.4974 30.0391 5.74219 29.7266C4.98698 29.4141 4.26432 29.0234 3.57422 28.5547C2.88411 28.0859 2.27214 27.5326 1.73828 26.8945C1.20443 26.2435 0.78125 25.5143 0.46875 24.707C0.15625 23.8867 0 22.9753 0 21.9727C0 20.918 0.221354 19.9544 0.664062 19.082C1.10677 18.1966 1.70573 17.4414 2.46094 16.8164C3.21615 16.1784 4.08854 15.6836 5.07812 15.332C6.08073 14.9805 7.13542 14.8047 8.24219 14.8047C9.04948 14.8047 9.77214 14.8763 10.4102 15.0195C11.0612 15.1497 11.6341 15.319 12.1289 15.5273C12.6237 15.7357 13.0469 15.9635 13.3984 16.2109C13.75 16.4583 14.043 16.6862 14.2773 16.8945C14.5117 17.1029 14.681 17.2852 14.7852 17.4414C14.8893 17.5846 14.9479 17.6562 14.9609 17.6562C15.0391 17.7995 15.0781 17.9362 15.0781 18.0664C15.0781 18.2487 15.0065 18.418 14.8633 18.5742C14.7331 18.7305 14.5573 18.8086 14.3359 18.8086C14.0755 18.8086 13.8672 18.6979 13.7109 18.4766C13.6979 18.4635 13.5938 18.3464 13.3984 18.125C13.2031 17.8906 12.8841 17.6367 12.4414 17.3633C11.9987 17.0898 11.4258 16.8424 10.7227 16.6211C10.0326 16.3997 9.1862 16.2891 8.18359 16.2891C7.27214 16.2891 6.40625 16.4323 5.58594 16.7188C4.77865 16.9922 4.06901 17.3828 3.45703 17.8906C2.85807 18.3984 2.3763 19.0039 2.01172 19.707C1.66016 20.3971 1.48438 21.1589 1.48438 21.9922C1.48438 22.8125 1.62109 23.5612 1.89453 24.2383C2.16797 24.9154 2.53255 25.5208 2.98828 26.0547C3.44401 26.5885 3.97135 27.0508 4.57031 27.4414C5.16927 27.832 5.79427 28.1576 6.44531 28.418C7.09635 28.6654 7.7474 28.8542 8.39844 28.9844C9.0625 29.1016 9.6875 29.1602 10.2734 29.1602C11.263 29.1602 12.2266 29.0885 13.1641 28.9453C14.1146 28.7891 15.0456 28.5026 15.957 28.0859C16.8815 27.6693 17.7865 27.0964 18.6719 26.3672C19.5573 25.638 20.4362 24.6875 21.3086 23.5156C22.181 22.3438 23.0404 20.931 23.8867 19.2773C24.7461 17.6237 25.6055 15.6706 26.4648 13.418C26.7253 12.7409 26.9792 12.0117 27.2266 11.2305C27.474 10.4492 27.7279 9.66146 27.9883 8.86719C27.7669 7.72135 27.6042 6.74479 27.5 5.9375C27.4089 5.13021 27.3633 4.45964 27.3633 3.92578C27.3633 3.35286 27.4089 2.89714 27.5 2.55859C27.5911 2.22005 27.7083 1.96615 27.8516 1.79688C27.9948 1.61458 28.151 1.50391 28.3203 1.46484C28.4896 1.41276 28.6523 1.38672 28.8086 1.38672C28.9388 1.38672 29.082 1.41276 29.2383 1.46484C29.4076 1.51693 29.5573 1.63411 29.6875 1.81641C29.8307 1.98568 29.9479 2.23958 30.0391 2.57812C30.1302 2.91667 30.1758 3.3724 30.1758 3.94531C30.1758 4.57031 30.1172 5.29297 30 6.11328C29.8828 6.93359 29.707 7.83854 29.4727 8.82812C29.6419 9.6224 29.8372 10.5078 30.0586 11.4844C30.2799 12.4609 30.5078 13.4766 30.7422 14.5312C30.9766 15.5729 31.2174 16.6406 31.4648 17.7344C31.7122 18.8281 31.9531 19.8958 32.1875 20.9375C32.4219 21.9792 32.6432 22.9753 32.8516 23.9258C33.0729 24.8763 33.2747 25.7357 33.457 26.5039C33.8086 25.6185 34.2383 24.5508 34.7461 23.3008C35.2539 22.0378 35.8203 20.7031 36.4453 19.2969C37.0703 17.8776 37.7279 16.4388 38.418 14.9805C39.1211 13.5091 39.8372 12.1224 40.5664 10.8203C41.5951 8.97135 42.5391 7.38932 43.3984 6.07422C44.2578 4.74609 45 3.65234 45.625 2.79297C46.25 1.93359 46.7383 1.30208 47.0898 0.898438C47.4544 0.481771 47.6497 0.253906 47.6758 0.214844C47.819 0.0716146 47.9948 0 48.2031 0C48.4245 0 48.6003 0.078125 48.7305 0.234375C48.8737 0.377604 48.9453 0.546875 48.9453 0.742188C48.9453 0.833333 48.9258 0.924479 48.8867 1.01562C48.8867 1.02865 48.8086 1.22396 48.6523 1.60156C48.5091 1.96615 48.3203 2.47396 48.0859 3.125C47.8646 3.76302 47.6172 4.51823 47.3438 5.39062C47.0703 6.25 46.8034 7.18099 46.543 8.18359C46.2826 9.17318 46.0482 10.2148 45.8398 11.3086C45.6445 12.3893 45.5013 13.4701 45.4102 14.5508C45.3711 15.0456 45.3385 15.5664 45.3125 16.1133C45.2865 16.6471 45.2734 17.1875 45.2734 17.7344C45.2734 18.5938 45.3125 19.4596 45.3906 20.332C45.4688 21.2044 45.599 22.0443 45.7812 22.8516C45.9635 23.6589 46.2109 24.4206 46.5234 25.1367C46.8359 25.8398 47.2201 26.4583 47.6758 26.9922C48.1315 27.526 48.6719 27.9557 49.2969 28.2812C49.9349 28.6068 50.6706 28.7826 51.5039 28.8086C51.7122 28.8216 51.875 28.9128 51.9922 29.082C52.1224 29.2383 52.1875 29.4076 52.1875 29.5898C52.1875 29.7721 52.1159 29.9349 51.9727 30.0781C51.8294 30.2214 51.6602 30.293 51.4648 30.293C51.2565 30.293 51.0482 30.2734 50.8398 30.2344C49.9023 30.1042 49.0755 29.8372 48.3594 29.4336C47.6432 29.0169 47.0247 28.5091 46.5039 27.9102C45.9831 27.2982 45.5469 26.6081 45.1953 25.8398C44.8568 25.0586 44.5833 24.2253 44.375 23.3398C44.1667 22.4544 44.0169 21.5365 43.9258 20.5859C43.8477 19.6224 43.8086 18.6523 43.8086 17.6758C43.8086 16.5169 43.8672 15.3581 43.9844 14.1992C44.1016 13.0404 44.2578 11.9141 44.4531 10.8203C44.6484 9.71354 44.8763 8.64583 45.1367 7.61719C45.3971 6.58854 45.6641 5.63151 45.9375 4.74609ZM60.8984 24.2188C61.5365 27.2266 62.4609 28.7305 63.6719 28.7305C64.1406 28.7305 64.5898 28.5612 65.0195 28.2227C65.4492 27.8711 65.8464 27.4479 66.2109 26.9531C66.5885 26.4453 66.9206 25.9115 67.207 25.3516C67.4935 24.7917 67.7279 24.3034 67.9102 23.8867C68.0404 23.5742 68.2682 23.418 68.5938 23.418C68.8021 23.418 68.9779 23.4961 69.1211 23.6523C69.2643 23.8086 69.3359 23.9779 69.3359 24.1602C69.3359 24.2643 69.3164 24.3555 69.2773 24.4336C69.1862 24.6549 69.0495 24.9544 68.8672 25.332C68.6979 25.6966 68.4831 26.0938 68.2227 26.5234C67.9753 26.9401 67.6953 27.3698 67.3828 27.8125C67.0703 28.2552 66.7253 28.6523 66.3477 29.0039C65.9701 29.3555 65.5664 29.6484 65.1367 29.8828C64.7201 30.1042 64.2773 30.2148 63.8086 30.2148C62.9362 30.2148 62.1875 29.9154 61.5625 29.3164C60.9375 28.7044 60.3971 27.7018 59.9414 26.3086C59.3164 27.6367 58.6849 28.6003 58.0469 29.1992C57.4089 29.7982 56.7188 30.0977 55.9766 30.0977C55.5859 30.0977 55.2083 30.0326 54.8438 29.9023C54.4792 29.7852 54.1602 29.5833 53.8867 29.2969C53.6133 29.0104 53.3919 28.6458 53.2227 28.2031C53.0534 27.7474 52.9688 27.194 52.9688 26.543C52.9688 25.6445 53.125 24.8177 53.4375 24.0625C53.75 23.3073 54.1536 22.6628 54.6484 22.1289C55.1432 21.582 55.6901 21.1589 56.2891 20.8594C56.901 20.5599 57.5065 20.4102 58.1055 20.4102C58.3008 20.4102 58.4701 20.4818 58.6133 20.625C58.7565 20.7552 58.8281 20.9245 58.8281 21.1328C58.8281 21.3151 58.7695 21.4779 58.6523 21.6211C58.5352 21.7643 58.3789 21.849 58.1836 21.875C57.793 21.9271 57.3763 22.0508 56.9336 22.2461C56.4909 22.4414 56.0807 22.7279 55.7031 23.1055C55.3385 23.4701 55.0326 23.9388 54.7852 24.5117C54.5508 25.0846 54.4336 25.7682 54.4336 26.5625C54.4336 27.2135 54.5638 27.7214 54.8242 28.0859C55.0977 28.4505 55.4883 28.6328 55.9961 28.6328C56.2044 28.6328 56.4258 28.5807 56.6602 28.4766C56.8945 28.3594 57.1419 28.138 57.4023 27.8125C57.6758 27.487 57.9688 27.0247 58.2812 26.4258C58.6068 25.8268 58.9648 25.0391 59.3555 24.0625C59.1341 22.9167 58.9323 21.5951 58.75 20.0977C58.5677 18.6003 58.4766 16.9271 58.4766 15.0781C58.4766 14.2708 58.5026 13.431 58.5547 12.5586C58.6068 11.6732 58.6914 10.8138 58.8086 9.98047C58.9258 9.13411 59.082 8.33333 59.2773 7.57812C59.4727 6.82292 59.707 6.15885 59.9805 5.58594C60.2669 5.01302 60.599 4.5638 60.9766 4.23828C61.3542 3.89974 61.7839 3.73047 62.2656 3.73047C62.6953 3.73047 63.0599 3.84766 63.3594 4.08203C63.6589 4.31641 63.8997 4.64193 64.082 5.05859C64.2773 5.47526 64.4206 5.97656 64.5117 6.5625C64.6029 7.14844 64.6484 7.79297 64.6484 8.49609C64.6484 10.0065 64.5182 11.5169 64.2578 13.0273C63.9974 14.5378 63.6719 15.9831 63.2812 17.3633C62.9036 18.7435 62.5 20.0195 62.0703 21.1914C61.6406 22.3633 61.25 23.3724 60.8984 24.2188ZM63.1836 8.47656C63.1836 8.15104 63.1706 7.79948 63.1445 7.42188C63.1315 7.04427 63.0859 6.69271 63.0078 6.36719C62.9427 6.02865 62.8516 5.7487 62.7344 5.52734C62.6172 5.30599 62.4609 5.19531 62.2656 5.19531C61.9401 5.19531 61.6341 5.48177 61.3477 6.05469C61.0742 6.6276 60.8333 7.38281 60.625 8.32031C60.4167 9.24479 60.2474 10.2995 60.1172 11.4844C60 12.6562 59.9414 13.8411 59.9414 15.0391C59.9414 16.1849 59.987 17.3307 60.0781 18.4766C60.1693 19.6224 60.2734 20.6445 60.3906 21.543C60.7682 20.5404 61.1263 19.5117 61.4648 18.457C61.8034 17.3893 62.0964 16.3021 62.3438 15.1953C62.6042 14.0885 62.806 12.9753 62.9492 11.8555C63.1055 10.7227 63.1836 9.59635 63.1836 8.47656ZM70.2734 27.7539C70.5469 28.1315 70.8984 28.4375 71.3281 28.6719C71.7578 28.8932 72.2852 29.0039 72.9102 29.0039C73.5482 29.0039 74.1276 28.8542 74.6484 28.5547C75.1693 28.2422 75.6445 27.8385 76.0742 27.3438C76.5039 26.849 76.888 26.2956 77.2266 25.6836C77.5651 25.0716 77.8711 24.4596 78.1445 23.8477C78.2096 23.7044 78.3008 23.6003 78.418 23.5352C78.5352 23.457 78.6654 23.418 78.8086 23.418C79.0299 23.418 79.2057 23.4961 79.3359 23.6523C79.4792 23.8086 79.5508 23.9779 79.5508 24.1602C79.5508 24.2253 79.5443 24.2839 79.5312 24.3359C79.5182 24.375 79.4987 24.4206 79.4727 24.4727C78.5742 26.4518 77.5911 27.9427 76.5234 28.9453C75.4688 29.9479 74.2708 30.4622 72.9297 30.4883C72.0703 30.4883 71.3281 30.319 70.7031 29.9805C70.0781 29.6549 69.5638 29.2318 69.1602 28.7109C68.7565 28.1771 68.457 27.5781 68.2617 26.9141C68.0664 26.25 67.9688 25.5859 67.9688 24.9219C67.9688 24.2578 68.0469 23.6458 68.2031 23.0859C68.3724 22.526 68.6068 22.0378 68.9062 21.6211C69.2188 21.2044 69.5833 20.8789 70 20.6445C70.4297 20.4102 70.8984 20.293 71.4062 20.293C71.7057 20.293 71.9987 20.3581 72.2852 20.4883C72.5846 20.6055 72.8516 20.7812 73.0859 21.0156C73.3203 21.237 73.5091 21.5104 73.6523 21.8359C73.7956 22.1615 73.8672 22.5326 73.8672 22.9492C73.8672 23.4831 73.776 23.9844 73.5938 24.4531C73.4115 24.9219 73.1576 25.3581 72.832 25.7617C72.5195 26.1654 72.1419 26.5365 71.6992 26.875C71.2565 27.2135 70.7812 27.5065 70.2734 27.7539ZM69.6875 26.4844C70.0911 26.3151 70.4557 26.1003 70.7812 25.8398C71.1198 25.5794 71.4062 25.293 71.6406 24.9805C71.875 24.668 72.0573 24.3424 72.1875 24.0039C72.3177 23.6523 72.3828 23.3008 72.3828 22.9492C72.3828 22.5586 72.2852 22.2656 72.0898 22.0703C71.8945 21.862 71.6667 21.7578 71.4062 21.7578C71.0547 21.7578 70.7552 21.8555 70.5078 22.0508C70.2604 22.2461 70.0586 22.5 69.9023 22.8125C69.7461 23.125 69.6289 23.4766 69.5508 23.8672C69.4857 24.2448 69.4531 24.6224 69.4531 25C69.4531 25.2344 69.4727 25.4818 69.5117 25.7422C69.5638 26.0026 69.6224 26.25 69.6875 26.4844ZM80.332 22.6758C80.2539 22.8841 80.1562 23.1185 80.0391 23.3789C79.9349 23.6393 79.8112 23.9128 79.668 24.1992C79.5508 24.4206 79.4271 24.5964 79.2969 24.7266C79.1797 24.8438 79.0234 24.9023 78.8281 24.9023C78.6068 24.9023 78.431 24.8372 78.3008 24.707C78.1706 24.5638 78.1055 24.401 78.1055 24.2188C78.1055 24.1536 78.112 24.1016 78.125 24.0625C78.138 24.0104 78.1706 23.9323 78.2227 23.8281C78.5612 23.1771 78.8086 22.6107 78.9648 22.1289C79.1341 21.6341 79.2708 21.1198 79.375 20.5859C79.2839 20.2865 79.2188 20.0326 79.1797 19.8242C79.1406 19.6159 79.1211 19.401 79.1211 19.1797C79.1211 18.75 79.2122 18.4049 79.3945 18.1445C79.5768 17.8711 79.8307 17.7344 80.1562 17.7344C80.4557 17.7344 80.6901 17.8646 80.8594 18.125C81.0417 18.3854 81.1328 18.7044 81.1328 19.082C81.1328 19.2904 81.1133 19.4987 81.0742 19.707C81.0352 19.9154 80.9831 20.1758 80.918 20.4883C81.2174 21.2305 81.5169 21.888 81.8164 22.4609C82.1159 23.0339 82.3828 23.5612 82.6172 24.043C82.8516 24.5117 83.0404 24.9544 83.1836 25.3711C83.3398 25.7878 83.418 26.2044 83.418 26.6211C83.418 27.168 83.3073 27.6888 83.0859 28.1836C82.8646 28.6784 82.5 29.0951 81.9922 29.4336C82.0573 29.4466 82.1224 29.4531 82.1875 29.4531C82.2526 29.4531 82.3177 29.4531 82.3828 29.4531C83.125 29.4531 83.8086 29.2839 84.4336 28.9453C85.0586 28.6068 85.6185 28.1706 86.1133 27.6367C86.6211 27.0898 87.0703 26.4909 87.4609 25.8398C87.8516 25.1758 88.1901 24.5182 88.4766 23.8672C88.6068 23.5677 88.7891 23.418 89.0234 23.418C89.2448 23.418 89.4141 23.4961 89.5312 23.6523C89.6615 23.8086 89.7266 23.9779 89.7266 24.1602C89.7266 24.2643 89.707 24.362 89.668 24.4531C89.5247 24.8047 89.3359 25.2083 89.1016 25.6641C88.8802 26.1068 88.6068 26.569 88.2812 27.0508C87.9688 27.5195 87.6042 27.9818 87.1875 28.4375C86.7708 28.8932 86.3021 29.3034 85.7812 29.668C85.2734 30.0195 84.7135 30.2995 84.1016 30.5078C83.4896 30.7292 82.819 30.8398 82.0898 30.8398C81.2174 30.8398 80.4036 30.6836 79.6484 30.3711C78.9062 30.0716 78.3008 29.5703 77.832 28.8672C77.7539 28.75 77.7148 28.6263 77.7148 28.4961C77.7148 28.3008 77.7865 28.1315 77.9297 27.9883C78.0859 27.832 78.2617 27.7539 78.457 27.7539C78.6654 27.7539 78.8411 27.8255 78.9844 27.9688C78.9974 27.9948 79.043 28.0404 79.1211 28.1055C79.1992 28.1576 79.2904 28.2227 79.3945 28.3008C79.5117 28.3659 79.6419 28.4245 79.7852 28.4766C79.9414 28.5286 80.0977 28.5547 80.2539 28.5547C80.5664 28.5547 80.8268 28.4896 81.0352 28.3594C81.2565 28.2292 81.4323 28.0729 81.5625 27.8906C81.6927 27.6953 81.7839 27.4935 81.8359 27.2852C81.901 27.0638 81.9336 26.875 81.9336 26.7188C81.9336 26.3932 81.8815 26.0677 81.7773 25.7422C81.6732 25.4167 81.5365 25.0911 81.3672 24.7656C81.2109 24.4401 81.0352 24.1081 80.8398 23.7695C80.6576 23.418 80.4883 23.0534 80.332 22.6758ZM91.5039 14.5703C91.5039 15.0651 91.3281 15.4883 90.9766 15.8398C90.638 16.1784 90.2214 16.3477 89.7266 16.3477C89.2318 16.3477 88.8086 16.1784 88.457 15.8398C88.1185 15.4883 87.9492 15.0651 87.9492 14.5703C87.9492 14.3229 87.9948 14.0951 88.0859 13.8867C88.1771 13.6654 88.3008 13.4766 88.457 13.3203C88.6263 13.151 88.8151 13.0208 89.0234 12.9297C89.2448 12.8385 89.4792 12.793 89.7266 12.793C89.974 12.793 90.2018 12.8385 90.4102 12.9297C90.6315 13.0208 90.8203 13.151 90.9766 13.3203C91.1458 13.4766 91.276 13.6654 91.3672 13.8867C91.4583 14.0951 91.5039 14.3229 91.5039 14.5703ZM88.3398 26.0156C88.3398 24.1406 88.457 22.2721 88.6914 20.4102C88.7174 20.2279 88.7956 20.0716 88.9258 19.9414C89.069 19.7982 89.2513 19.7266 89.4727 19.7266C89.668 19.7266 89.8307 19.8047 89.9609 19.9609C90.0911 20.1042 90.1562 20.2734 90.1562 20.4688C90.1562 20.5469 90.1367 20.7812 90.0977 21.1719C90.0716 21.5625 90.0326 22.0312 89.9805 22.5781C89.9414 23.112 89.9023 23.6849 89.8633 24.2969C89.8372 24.8958 89.8242 25.4492 89.8242 25.957C89.8242 26.6471 89.8893 27.207 90.0195 27.6367C90.1628 28.0534 90.3385 28.3789 90.5469 28.6133C90.7682 28.8477 90.9961 29.0039 91.2305 29.082C91.4779 29.1602 91.7122 29.1992 91.9336 29.1992C92.2982 29.1992 92.6758 29.069 93.0664 28.8086C93.457 28.5482 93.8542 28.1836 94.2578 27.7148C94.6745 27.2461 95.0911 26.6862 95.5078 26.0352C95.9245 25.3711 96.3346 24.6354 96.7383 23.8281C96.8034 23.6979 96.8945 23.6003 97.0117 23.5352C97.1289 23.457 97.2591 23.418 97.4023 23.418C97.6107 23.418 97.7799 23.4961 97.9102 23.6523C98.0534 23.8086 98.125 23.9779 98.125 24.1602C98.125 24.2904 98.099 24.401 98.0469 24.4922C97.8906 24.7917 97.6953 25.1562 97.4609 25.5859C97.2266 26.0156 96.9596 26.4583 96.6602 26.9141C96.3607 27.3698 96.0286 27.8255 95.6641 28.2812C95.3125 28.724 94.9349 29.1276 94.5312 29.4922C94.1276 29.8438 93.7044 30.1302 93.2617 30.3516C92.819 30.5729 92.3698 30.6836 91.9141 30.6836C91.3281 30.6836 90.8138 30.5599 90.3711 30.3125C89.9284 30.0651 89.5508 29.7331 89.2383 29.3164C88.9388 28.8997 88.7109 28.4115 88.5547 27.8516C88.4115 27.2786 88.3398 26.6667 88.3398 26.0156ZM90.4102 14.5703C90.4102 14.388 90.3385 14.2318 90.1953 14.1016C90.0651 13.9583 89.9089 13.8867 89.7266 13.8867C89.5443 13.8867 89.388 13.9583 89.2578 14.1016C89.1276 14.2318 89.0625 14.388 89.0625 14.5703C89.0625 14.7526 89.1276 14.9089 89.2578 15.0391C89.388 15.1693 89.5443 15.2344 89.7266 15.2344C89.9089 15.2344 90.0651 15.1693 90.1953 15.0391C90.3385 14.9089 90.4102 14.7526 90.4102 14.5703ZM103.789 31.8164C106.237 28.6263 107.936 25.9766 108.887 23.8672C108.952 23.724 109.036 23.6198 109.141 23.5547C109.258 23.4766 109.388 23.4375 109.531 23.4375C109.753 23.4375 109.935 23.5156 110.078 23.6719C110.221 23.8151 110.293 23.9844 110.293 24.1797C110.293 24.2708 110.273 24.362 110.234 24.4531C109.661 25.7552 108.848 27.207 107.793 28.8086C106.738 30.4102 105.404 32.2201 103.789 34.2383C103.789 35.0586 103.796 35.8789 103.809 36.6992C103.822 37.5195 103.828 38.418 103.828 39.3945C103.828 40.3711 103.802 41.3346 103.75 42.2852C103.711 43.2487 103.633 44.1602 103.516 45.0195C103.398 45.8919 103.236 46.6927 103.027 47.4219C102.832 48.1641 102.572 48.8021 102.246 49.3359C101.934 49.8828 101.549 50.306 101.094 50.6055C100.651 50.918 100.124 51.0742 99.5117 51.0742C98.6393 51.0742 97.9688 50.7422 97.5 50.0781C97.0312 49.4141 96.7969 48.4701 96.7969 47.2461C96.7969 46.5951 96.8555 45.8854 96.9727 45.1172C97.1029 44.362 97.2852 43.5807 97.5195 42.7734C97.7539 41.9661 98.0339 41.1458 98.3594 40.3125C98.6979 39.4922 99.069 38.6914 99.4727 37.9102C99.8763 37.1289 100.312 36.3802 100.781 35.6641C101.263 34.9479 101.771 34.2969 102.305 33.7109C102.318 32.7995 102.324 31.8945 102.324 30.9961C102.337 30.0977 102.357 29.2708 102.383 28.5156C101.992 29.0104 101.523 29.401 100.977 29.6875C100.443 29.974 99.9089 30.1172 99.375 30.1172C98.9193 30.1172 98.5026 30.0326 98.125 29.8633C97.7604 29.681 97.4479 29.4336 97.1875 29.1211C96.9271 28.7956 96.7253 28.418 96.582 27.9883C96.4388 27.5586 96.3672 27.0898 96.3672 26.582C96.3672 25.5664 96.5365 24.6745 96.875 23.9062C97.2266 23.125 97.6693 22.474 98.2031 21.9531C98.737 21.4323 99.3229 21.0417 99.9609 20.7812C100.612 20.5208 101.237 20.3906 101.836 20.3906C102.24 20.3906 102.611 20.4427 102.949 20.5469C103.288 20.651 103.574 20.7682 103.809 20.8984C104.056 21.0286 104.245 21.1523 104.375 21.2695C104.505 21.3867 104.577 21.4518 104.59 21.4648C104.733 21.6211 104.805 21.7969 104.805 21.9922C104.805 22.1875 104.733 22.3633 104.59 22.5195C104.447 22.6628 104.277 22.7344 104.082 22.7344C103.9 22.7344 103.724 22.6628 103.555 22.5195C103.503 22.4805 103.431 22.4284 103.34 22.3633C103.262 22.2852 103.151 22.207 103.008 22.1289C102.878 22.0508 102.715 21.9857 102.52 21.9336C102.337 21.8815 102.116 21.8555 101.855 21.8555C101.465 21.8555 101.035 21.9466 100.566 22.1289C100.098 22.2982 99.6615 22.5716 99.2578 22.9492C98.8542 23.3268 98.5156 23.8151 98.2422 24.4141C97.9688 25 97.832 25.7096 97.832 26.543C97.832 27.168 97.9688 27.6758 98.2422 28.0664C98.5156 28.444 98.9388 28.6328 99.5117 28.6328C99.7852 28.6328 100.072 28.5547 100.371 28.3984C100.684 28.2422 100.983 28.0013 101.27 27.6758C101.556 27.3503 101.803 26.9401 102.012 26.4453C102.233 25.9505 102.389 25.3646 102.48 24.6875C102.507 24.5052 102.591 24.3555 102.734 24.2383C102.878 24.1081 103.047 24.043 103.242 24.043C103.464 24.043 103.633 24.1211 103.75 24.2773C103.88 24.4336 103.945 24.6094 103.945 24.8047C103.945 24.8177 103.939 25.0195 103.926 25.4102C103.913 25.7878 103.9 26.2956 103.887 26.9336C103.874 27.5716 103.854 28.3138 103.828 29.1602C103.815 29.9935 103.802 30.8789 103.789 31.8164ZM102.305 36.0938C101.693 36.9401 101.139 37.8581 100.645 38.8477C100.15 39.8503 99.7266 40.8594 99.375 41.875C99.0234 42.8906 98.75 43.8737 98.5547 44.8242C98.3724 45.7878 98.2812 46.6471 98.2812 47.4023C98.2812 47.8841 98.3203 48.2682 98.3984 48.5547C98.4896 48.8411 98.5938 49.0625 98.7109 49.2188C98.8411 49.375 98.9779 49.4792 99.1211 49.5312C99.2773 49.5833 99.4206 49.6094 99.5508 49.6094C99.9544 49.6094 100.306 49.4466 100.605 49.1211C100.905 48.7956 101.159 48.3594 101.367 47.8125C101.576 47.2786 101.745 46.6602 101.875 45.957C102.005 45.2539 102.103 44.5247 102.168 43.7695C102.233 43.0273 102.279 42.2852 102.305 41.543C102.331 40.8008 102.344 40.1172 102.344 39.4922C102.344 38.9323 102.344 38.3724 102.344 37.8125C102.344 37.2526 102.331 36.6797 102.305 36.0938ZM113.242 28.1445C113.451 27.7148 113.691 27.2461 113.965 26.7383C114.238 26.2174 114.531 25.6966 114.844 25.1758C115.156 24.6419 115.482 24.1146 115.82 23.5938C116.172 23.0729 116.536 22.5781 116.914 22.1094C117.292 21.6536 117.669 21.3281 118.047 21.1328C118.438 20.9245 118.802 20.8203 119.141 20.8203C119.818 20.8203 120.319 21.0677 120.645 21.5625C120.97 22.0573 121.133 22.6693 121.133 23.3984C121.133 23.5677 121.12 23.776 121.094 24.0234C121.081 24.2578 121.061 24.5117 121.035 24.7852C121.022 25.0586 121.003 25.3385 120.977 25.625C120.964 25.8984 120.957 26.1589 120.957 26.4062C120.957 26.7188 120.97 27.0182 120.996 27.3047C121.035 27.5911 121.1 27.8451 121.191 28.0664C121.283 28.2747 121.413 28.444 121.582 28.5742C121.751 28.6914 121.973 28.75 122.246 28.75C122.741 28.75 123.223 28.5612 123.691 28.1836C124.16 27.793 124.59 27.3372 124.98 26.8164C125.384 26.2826 125.729 25.7422 126.016 25.1953C126.315 24.6484 126.536 24.2057 126.68 23.8672C126.745 23.724 126.836 23.6133 126.953 23.5352C127.083 23.457 127.22 23.418 127.363 23.418C127.585 23.418 127.76 23.5026 127.891 23.6719C128.034 23.8281 128.105 23.9974 128.105 24.1797C128.105 24.2708 128.086 24.362 128.047 24.4531C127.995 24.5573 127.891 24.7721 127.734 25.0977C127.578 25.4232 127.37 25.8008 127.109 26.2305C126.862 26.6471 126.569 27.0964 126.23 27.5781C125.892 28.0469 125.514 28.4766 125.098 28.8672C124.694 29.2578 124.251 29.5833 123.77 29.8438C123.301 30.1042 122.806 30.2344 122.285 30.2344C121.699 30.2344 121.224 30.1237 120.859 29.9023C120.495 29.668 120.208 29.3685 120 29.0039C119.792 28.6263 119.648 28.2161 119.57 27.7734C119.505 27.3177 119.473 26.862 119.473 26.4062C119.473 26.2109 119.479 25.9896 119.492 25.7422C119.518 25.4948 119.544 25.2344 119.57 24.9609C119.609 24.6875 119.635 24.4141 119.648 24.1406C119.674 23.8672 119.688 23.6068 119.688 23.3594C119.688 22.9427 119.622 22.6628 119.492 22.5195C119.362 22.3633 119.245 22.2852 119.141 22.2852C118.932 22.2852 118.691 22.4089 118.418 22.6562C118.158 22.8906 117.878 23.2031 117.578 23.5938C117.292 23.9844 116.992 24.4271 116.68 24.9219C116.38 25.4036 116.094 25.8854 115.82 26.3672C115.56 26.849 115.312 27.3112 115.078 27.7539C114.857 28.1836 114.681 28.5417 114.551 28.8281C114.29 29.375 114.03 29.7396 113.77 29.9219C113.509 30.1172 113.242 30.2148 112.969 30.2148C112.591 30.2148 112.285 30.1042 112.051 29.8828C111.829 29.6484 111.719 29.3229 111.719 28.9062C111.719 28.8151 111.732 28.6393 111.758 28.3789C111.784 28.1055 111.816 27.7865 111.855 27.4219C111.895 27.0443 111.934 26.6406 111.973 26.2109C112.012 25.7812 112.051 25.3581 112.09 24.9414C112.129 24.5117 112.161 24.1146 112.188 23.75C112.214 23.3854 112.227 23.0794 112.227 22.832C112.227 22.5065 112.214 22.194 112.188 21.8945C112.161 21.5951 112.109 21.4128 112.031 21.3477C111.914 21.3867 111.706 21.6341 111.406 22.0898C111.107 22.5326 110.723 23.3203 110.254 24.4531C110.189 24.5964 110.091 24.707 109.961 24.7852C109.831 24.8633 109.694 24.9023 109.551 24.9023C109.329 24.9023 109.154 24.8307 109.023 24.6875C108.893 24.5312 108.828 24.3555 108.828 24.1602C108.828 24.069 108.848 23.9714 108.887 23.8672C109.473 22.474 110.02 21.4518 110.527 20.8008C111.048 20.1367 111.562 19.8047 112.07 19.8047C112.37 19.8047 112.624 19.8828 112.832 20.0391C113.04 20.1823 113.203 20.3776 113.32 20.625C113.451 20.8724 113.542 21.1458 113.594 21.4453C113.659 21.7448 113.691 22.0508 113.691 22.3633C113.691 22.5977 113.672 22.9622 113.633 23.457C113.607 23.9518 113.568 24.4857 113.516 25.0586C113.464 25.6185 113.411 26.1784 113.359 26.7383C113.32 27.2982 113.281 27.7669 113.242 28.1445Z" fill="#9B7C8C"/>
</svg>
