<svg width="104" height="109" viewBox="0 0 104 109" fill="none" xmlns="http://www.w3.org/2000/svg">
<g clip-path="url(#clip0_388_22)">
<path d="M50.8609 0C51.6978 1.8618 51.6745 3.81698 51.5292 6.92777L91.4345 6.99197C92.7073 3.86951 95.0786 2.09526 98.0427 2.23533C101.39 2.38707 103.727 5.05429 103.971 7.99582C104.256 11.4568 101.972 14.2407 99.1005 14.7252C95.6365 15.3146 92.6375 13.6571 91.5565 10.0152L59.3522 10.0619C70.7786 15.4255 78.8456 25.2773 81.4087 37.6504L88.2088 37.9539L88.1507 52.7257H72.9465L72.9697 37.8138L78.1889 37.6446C75.2131 24.361 64.8213 13.9723 51.7501 10.9899L51.3723 15.3146L37.4119 15.2504C36.511 15.2504 36.2669 12.6299 36.4296 11.0599C23.4049 13.8088 12.798 24.4427 10.0025 37.592L15.0647 38.0881L14.9485 52.7783L1.7901 52.86C1.41232 52.86 0.139488 52.3405 0 52.2588V38.3274C1.96446 37.6913 4.22533 37.6854 6.70705 37.6271C9.92109 22.435 21.4986 10.8907 36.3831 7.76821L36.3599 2.73142C36.3599 1.93767 37.0399 0.560291 37.5688 0.00583637H50.8609V0ZM39.4693 3.19833V12.1922H48.5477V3.19833H39.4693ZM100.902 8.53861C100.902 6.77602 99.4783 5.35195 97.7288 5.35195C95.9794 5.35195 94.5555 6.78186 94.5555 8.53861C94.5555 10.2954 95.9794 11.7253 97.7288 11.7253C99.4783 11.7253 100.902 10.2954 100.902 8.53861ZM12.1355 40.6386H2.93506V49.8484H12.1355V40.6386ZM76.0849 40.6386V49.8543H84.9657V40.6386H76.0849Z" fill="#3F2518"/>
<path d="M61.3109 89.8801L78.2703 106.747L75.8758 109L51.3665 84.4231L36.2844 78.0615L31.6639 48.7804C31.5883 48.3135 32.495 46.9828 33.175 47.0937L62.3629 51.6927L68.8549 66.8148L92.0215 91.0766L89.9059 93.4286L74.26 76.8592L61.3109 89.8801ZM39.1613 75.9545L52.465 81.4232L65.9082 67.9295L60.2124 54.4825L37.9524 51.0332C41.7651 54.9903 45.1419 58.7781 49.1522 61.9589C50.5703 63.0853 53.1625 62.6126 52.6394 65.4432C52.343 67.0424 51.0585 67.8828 49.53 68.0813C46.8216 68.4315 47.5887 65.9277 46.5019 64.6612C43.2995 60.9142 39.9518 57.6925 35.8601 53.8989C36.6971 61.422 37.8885 68.6591 39.1613 75.9545ZM67.9075 70.3049L54.8014 83.4601L59.05 87.7265L72.1561 74.5713L67.9075 70.3049Z" fill="#3F2518"/>
</g>
<defs>
<clipPath id="clip0_388_22">
<rect width="104" height="109" fill="white"/>
</clipPath>
</defs>
</svg>
