<svg width="180" height="170" viewBox="0 0 180 170" fill="none" xmlns="http://www.w3.org/2000/svg">
<path d="M88.0284 0C89.4769 3.21118 89.4367 6.58342 89.1852 11.9488L158.252 12.0595C160.455 6.67402 164.559 3.61384 169.689 3.85543C175.483 4.11716 179.527 8.7175 179.95 13.791C180.443 19.7603 176.489 24.562 171.52 25.3975C165.525 26.4142 160.334 23.5554 158.463 17.2739L102.725 17.3545C122.501 26.6055 136.464 43.5976 140.9 64.9383L152.669 65.4618L152.568 90.9398H126.253L126.294 65.2202L135.327 64.9282C130.177 42.0171 112.191 24.0989 89.5675 18.955L88.9136 26.4142L64.7513 26.3035C63.1921 26.3035 62.7696 21.7837 63.0513 19.0758C40.5085 23.8171 22.1504 42.1581 17.3119 64.8377L26.0735 65.6933L25.8724 91.0304L3.09825 91.1713C2.44439 91.1713 0.241422 90.2754 0 90.1345V66.106C3.40002 65.0088 7.31307 64.9987 11.6084 64.898C17.1711 38.6952 37.2091 18.7839 62.9708 13.3984L62.9306 4.71107C62.9306 3.34204 64.1075 0.966374 65.0229 0.0100664H88.0284V0ZM68.3123 5.51638V21.0287H84.0248V5.51638H68.3123ZM174.638 14.7271C174.638 11.6871 172.174 9.23088 169.146 9.23088C166.118 9.23088 163.654 11.6972 163.654 14.7271C163.654 17.7571 166.118 20.2234 169.146 20.2234C172.174 20.2234 174.638 17.7571 174.638 14.7271ZM21.0037 70.0923H5.07992V85.9771H21.0037V70.0923ZM131.685 70.0923V85.9871H147.056V70.0923H131.685Z" fill="#3F2518"/>
<path d="M106.115 136.792L135.468 165.76L131.323 169.629L88.9034 127.42L62.7997 116.494L54.8026 66.206C54.6718 65.4041 56.2411 63.1187 57.418 63.3092L107.935 71.2078L119.172 97.1788L159.268 138.847L155.606 142.886L128.527 114.429L106.115 136.792ZM67.779 112.876L90.8046 122.268L114.072 99.0933L104.214 75.999L65.6867 70.0751C72.2855 76.8711 78.13 83.3764 85.0708 88.8392C87.5253 90.7738 92.0117 89.9618 91.1064 94.8233C90.5934 97.5697 88.3703 99.0131 85.7247 99.3539C81.0371 99.9553 82.3649 95.6552 80.4838 93.4801C74.9412 87.045 69.1471 81.512 62.0654 74.9967C63.5139 87.917 65.576 100.346 67.779 112.876ZM117.532 103.173L94.8484 125.766L102.202 133.093L124.885 110.5L117.532 103.173Z" fill="#3F2518"/>
</svg>
