<svg width="1440" height="53" viewBox="0 0 1440 53" fill="none" xmlns="http://www.w3.org/2000/svg">
<path d="M-6 26.5C44.5667 -6.83333 95.1333 -6.83333 145.7 26.5C196.267 59.8333 246.833 59.8333 297.4 26.5C347.967 -6.83333 398.533 -6.83333 449.1 26.5C499.667 59.8333 550.233 59.8333 600.8 26.5C651.367 -6.83333 701.933 -6.83333 752.5 26.5C803.067 59.8333 853.633 59.8333 904.2 26.5C954.767 -6.83333 1005.33 -6.83333 1055.9 26.5C1106.47 59.8333 1157.03 59.8333 1207.6 26.5C1258.17 -6.83333 1308.73 -6.83333 1359.3 26.5C1409.87 59.8333 1460.43 59.8333 1511 26.5" stroke="#D4ADA2" stroke-width="3"/>
<path d="M-73 26.5C-22.3667 -6.83333 28.2667 -6.83333 78.9 26.5C129.533 59.8333 180.167 59.8333 230.8 26.5C281.433 -6.83333 332.067 -6.83333 382.7 26.5C433.333 59.8333 483.967 59.8333 534.6 26.5C585.233 -6.83333 635.867 -6.83333 686.5 26.5C737.133 59.8333 787.767 59.8333 838.4 26.5C889.033 -6.83333 939.667 -6.83333 990.3 26.5C1040.93 59.8333 1091.57 59.8333 1142.2 26.5C1192.83 -6.83333 1243.47 -6.83333 1294.1 26.5C1344.73 59.8333 1395.37 59.8333 1446 26.5" stroke="#D4ACA2" stroke-width="3"/>
</svg>
